/*
 *  Here are the 17 (16+1) dithering patterns
 */

#define shade_width 4
#define shade_height 4

static unsigned char shade_bits[17][4]={
{ 0x0F, 0x0F, 0x0F, 0x0F},
{ 0x0F, 0x0F, 0x0F, 0x07},
{ 0x0F, 0x0D, 0x0F, 0x07},
{ 0x0F, 0x0D, 0x0F, 0x05},
{ 0x0F, 0x05, 0x0F, 0x05},
{ 0x0F, 0x05, 0x0B, 0x05},
{ 0x0E, 0x05, 0x0B, 0x05},
{ 0x0E, 0x05, 0x0A, 0x05},
{ 0x0A, 0x05, 0x0A, 0x05},
{ 0x0A, 0x05, 0x0A, 0x01},
{ 0x0A, 0x04, 0x0A, 0x01},
{ 0x0A, 0x04, 0x0A, 0x00},
{ 0x0A, 0x00, 0x0A, 0x00},
{ 0x0A, 0x00, 0x02, 0x00},
{ 0x08, 0x00, 0x02, 0x00},
{ 0x08, 0x00, 0x00, 0x00},
{ 0x00, 0x00, 0x00, 0x00},
};
